<svg width="34" height="26" viewBox="0 0 34 26" fill="none" xmlns="http://www.w3.org/2000/svg">
<path d="M30.3571 10.6364V1.18182C30.3571 0.86838 30.2292 0.567781 30.0015 0.346147C29.7738 0.124513 29.4649 0 29.1429 0H4.85714C4.53509 0 4.22624 0.124513 3.99851 0.346147C3.77079 0.567781 3.64286 0.86838 3.64286 1.18182V10.6364C2.67671 10.6364 1.75014 11.0099 1.06697 11.6748C0.3838 12.3397 0 13.2415 0 14.1818V26H2.73214V23.6364H31.2679V26H34V14.1818C34 13.2415 33.6162 12.3397 32.933 11.6748C32.2499 11.0099 31.3233 10.6364 30.3571 10.6364ZM15.7857 10.6364H6.67857V8.27273C6.67857 7.95929 6.80651 7.65869 7.03423 7.43706C7.26195 7.21542 7.57081 7.09091 7.89286 7.09091H14.5714C14.8935 7.09091 15.2023 7.21542 15.4301 7.43706C15.6578 7.65869 15.7857 7.95929 15.7857 8.27273V10.6364ZM18.2143 8.27273C18.2143 7.95929 18.3422 7.65869 18.5699 7.43706C18.7977 7.21542 19.1065 7.09091 19.4286 7.09091H26.1071C26.4292 7.09091 26.7381 7.21542 26.9658 7.43706C27.1935 7.65869 27.3214 7.95929 27.3214 8.27273V10.6364H18.2143V8.27273Z" fill="#C09486"/>
</svg>
