<svg width="30" height="39" viewBox="0 0 30 39" fill="none" xmlns="http://www.w3.org/2000/svg">
<path d="M2.5 0C1.83696 0 1.20107 0.256807 0.732233 0.713927C0.263392 1.17105 0 1.79103 0 2.4375V36.5625C0 37.209 0.263392 37.829 0.732233 38.2861C1.20107 38.7432 1.83696 39 2.5 39H10V30.4688C10 30.1455 10.1317 29.8355 10.3661 29.607C10.6005 29.3784 10.9185 29.25 11.25 29.25H18.75C19.0815 29.25 19.3995 29.3784 19.6339 29.607C19.8683 29.8355 20 30.1455 20 30.4688V39H27.5C28.163 39 28.7989 38.7432 29.2678 38.2861C29.7366 37.829 30 37.209 30 36.5625V2.4375C30 1.79103 29.7366 1.17105 29.2678 0.713927C28.7989 0.256807 28.163 0 27.5 0L2.5 0ZM5 6.09375C5 5.77052 5.1317 5.46052 5.36612 5.23196C5.60054 5.0034 5.91848 4.875 6.25 4.875H8.75C9.08152 4.875 9.39946 5.0034 9.63388 5.23196C9.8683 5.46052 10 5.77052 10 6.09375V8.53125C10 8.85448 9.8683 9.16448 9.63388 9.39304C9.39946 9.6216 9.08152 9.75 8.75 9.75H6.25C5.91848 9.75 5.60054 9.6216 5.36612 9.39304C5.1317 9.16448 5 8.85448 5 8.53125V6.09375ZM12.5 6.09375C12.5 5.77052 12.6317 5.46052 12.8661 5.23196C13.1005 5.0034 13.4185 4.875 13.75 4.875H16.25C16.5815 4.875 16.8995 5.0034 17.1339 5.23196C17.3683 5.46052 17.5 5.77052 17.5 6.09375V8.53125C17.5 8.85448 17.3683 9.16448 17.1339 9.39304C16.8995 9.6216 16.5815 9.75 16.25 9.75H13.75C13.4185 9.75 13.1005 9.6216 12.8661 9.39304C12.6317 9.16448 12.5 8.85448 12.5 8.53125V6.09375ZM21.25 4.875H23.75C24.0815 4.875 24.3995 5.0034 24.6339 5.23196C24.8683 5.46052 25 5.77052 25 6.09375V8.53125C25 8.85448 24.8683 9.16448 24.6339 9.39304C24.3995 9.6216 24.0815 9.75 23.75 9.75H21.25C20.9185 9.75 20.6005 9.6216 20.3661 9.39304C20.1317 9.16448 20 8.85448 20 8.53125V6.09375C20 5.77052 20.1317 5.46052 20.3661 5.23196C20.6005 5.0034 20.9185 4.875 21.25 4.875ZM5 13.4062C5 13.083 5.1317 12.773 5.36612 12.5445C5.60054 12.3159 5.91848 12.1875 6.25 12.1875H8.75C9.08152 12.1875 9.39946 12.3159 9.63388 12.5445C9.8683 12.773 10 13.083 10 13.4062V15.8438C10 16.167 9.8683 16.477 9.63388 16.7055C9.39946 16.9341 9.08152 17.0625 8.75 17.0625H6.25C5.91848 17.0625 5.60054 16.9341 5.36612 16.7055C5.1317 16.477 5 16.167 5 15.8438V13.4062ZM13.75 12.1875H16.25C16.5815 12.1875 16.8995 12.3159 17.1339 12.5445C17.3683 12.773 17.5 13.083 17.5 13.4062V15.8438C17.5 16.167 17.3683 16.477 17.1339 16.7055C16.8995 16.9341 16.5815 17.0625 16.25 17.0625H13.75C13.4185 17.0625 13.1005 16.9341 12.8661 16.7055C12.6317 16.477 12.5 16.167 12.5 15.8438V13.4062C12.5 13.083 12.6317 12.773 12.8661 12.5445C13.1005 12.3159 13.4185 12.1875 13.75 12.1875ZM20 13.4062C20 13.083 20.1317 12.773 20.3661 12.5445C20.6005 12.3159 20.9185 12.1875 21.25 12.1875H23.75C24.0815 12.1875 24.3995 12.3159 24.6339 12.5445C24.8683 12.773 25 13.083 25 13.4062V15.8438C25 16.167 24.8683 16.477 24.6339 16.7055C24.3995 16.9341 24.0815 17.0625 23.75 17.0625H21.25C20.9185 17.0625 20.6005 16.9341 20.3661 16.7055C20.1317 16.477 20 16.167 20 15.8438V13.4062ZM6.25 19.5H8.75C9.08152 19.5 9.39946 19.6284 9.63388 19.857C9.8683 20.0855 10 20.3955 10 20.7188V23.1562C10 23.4795 9.8683 23.7895 9.63388 24.018C9.39946 24.2466 9.08152 24.375 8.75 24.375H6.25C5.91848 24.375 5.60054 24.2466 5.36612 24.018C5.1317 23.7895 5 23.4795 5 23.1562V20.7188C5 20.3955 5.1317 20.0855 5.36612 19.857C5.60054 19.6284 5.91848 19.5 6.25 19.5ZM12.5 20.7188C12.5 20.3955 12.6317 20.0855 12.8661 19.857C13.1005 19.6284 13.4185 19.5 13.75 19.5H16.25C16.5815 19.5 16.8995 19.6284 17.1339 19.857C17.3683 20.0855 17.5 20.3955 17.5 20.7188V23.1562C17.5 23.4795 17.3683 23.7895 17.1339 24.018C16.8995 24.2466 16.5815 24.375 16.25 24.375H13.75C13.4185 24.375 13.1005 24.2466 12.8661 24.018C12.6317 23.7895 12.5 23.4795 12.5 23.1562V20.7188ZM21.25 19.5H23.75C24.0815 19.5 24.3995 19.6284 24.6339 19.857C24.8683 20.0855 25 20.3955 25 20.7188V23.1562C25 23.4795 24.8683 23.7895 24.6339 24.018C24.3995 24.2466 24.0815 24.375 23.75 24.375H21.25C20.9185 24.375 20.6005 24.2466 20.3661 24.018C20.1317 23.7895 20 23.4795 20 23.1562V20.7188C20 20.3955 20.1317 20.0855 20.3661 19.857C20.6005 19.6284 20.9185 19.5 21.25 19.5Z" fill="#C09486"/>
</svg>
