<svg width="24" height="24" viewBox="0 0 24 24" fill="none" xmlns="http://www.w3.org/2000/svg">
<path d="M5.42008 14.4656L4.59733 17.537L1.5902 17.6006C0.691514 15.9338 0.181763 14.0266 0.181763 12C0.181763 10.0403 0.658368 8.1922 1.50318 6.56494H1.50383L4.18102 7.05576L5.35379 9.71689C5.10833 10.4325 4.97454 11.2007 4.97454 12C4.97464 12.8675 5.13178 13.6987 5.42008 14.4656Z" fill="#FBBB00"/>
<path d="M23.6116 9.79211C23.7474 10.507 23.8181 11.2453 23.8181 11.9999C23.8181 12.846 23.7292 13.6713 23.5597 14.4675C22.9844 17.1765 21.4811 19.5421 19.3987 21.2161L19.398 21.2155L16.026 21.0434L15.5487 18.0642C16.9305 17.2538 18.0104 15.9856 18.5793 14.4675H12.2598V9.79211H18.6715H23.6116Z" fill="#518EF8"/>
<path d="M19.398 21.2156L19.3986 21.2162C17.3733 22.8441 14.8006 23.8181 11.9999 23.8181C7.4993 23.8181 3.58633 21.3026 1.59021 17.6006L5.42008 14.4656C6.41812 17.1292 8.98761 19.0253 11.9999 19.0253C13.2947 19.0253 14.5078 18.6753 15.5486 18.0643L19.398 21.2156Z" fill="#28B446"/>
<path d="M19.5434 2.90253L15.7149 6.03693C14.6376 5.36357 13.3642 4.97459 11.9999 4.97459C8.91941 4.97459 6.30186 6.95769 5.35382 9.71682L1.50382 6.56487H1.50317C3.47007 2.77267 7.43239 0.181763 11.9999 0.181763C14.8675 0.181763 17.4967 1.2032 19.5434 2.90253Z" fill="#F14336"/>
</svg>
