<svg width="39" height="39" viewBox="0 0 39 39" fill="none" xmlns="http://www.w3.org/2000/svg">
<path d="M37.0539 19.9256C36.9388 19.9266 36.8277 19.8834 36.7436 19.8052L36.1846 19.2462L33.624 16.6855V20.3069V33.1496C33.624 34.3033 33.1657 35.4097 32.3499 36.2255C31.5341 37.0413 30.4277 37.4996 29.274 37.4996H9.77396C8.62027 37.4996 7.51383 37.0413 6.69805 36.2255C5.88226 35.4097 5.42396 34.3033 5.42396 33.1496V20.3069V16.6856L2.8633 19.2462L2.29195 19.8176L2.28273 19.8268L2.27368 19.8362C2.23216 19.8792 2.18251 19.9134 2.12761 19.937C2.07271 19.9606 2.01366 19.973 1.95392 19.9735C1.89416 19.974 1.83491 19.9627 1.77961 19.94L1.21312 21.3246L1.7796 19.94C1.72429 19.9174 1.67405 19.884 1.63181 19.8417L0.571142 20.9024L1.6318 19.8417C1.58955 19.7995 1.55614 19.7492 1.53351 19.6939L0.14521 20.2619L1.53351 19.6939C1.51088 19.6386 1.4995 19.5794 1.50002 19.5196C1.50054 19.4599 1.51295 19.4008 1.53653 19.3459C1.56012 19.291 1.5944 19.2414 1.63738 19.1999L1.64676 19.1908L1.65597 19.1816L5.55597 15.2816L19.2058 1.63175C19.2902 1.54739 19.4046 1.5 19.524 1.5C19.6432 1.5 19.7576 1.54733 19.842 1.63159C19.842 1.63165 19.8421 1.6317 19.8421 1.63176L37.3795 19.1691C37.4578 19.2533 37.501 19.3644 37.5 19.4795C37.499 19.5975 37.4516 19.7104 37.3682 19.7938C37.2848 19.8773 37.1719 19.9246 37.0539 19.9256Z" stroke="white" stroke-width="3"/>
</svg>
