<svg width="39" height="39" viewBox="0 0 39 39" fill="none" xmlns="http://www.w3.org/2000/svg">
<path d="M1.62514 14.7481C1.59195 14.7481 1.56012 14.7349 1.53665 14.7115C1.51318 14.688 1.5 14.6562 1.5 14.623V1.62514C1.5 1.59195 1.51318 1.56012 1.53665 1.53665C1.56012 1.51318 1.59195 1.5 1.62514 1.5H14.6262C14.6594 1.5 14.6912 1.51318 14.7147 1.53665C14.7382 1.56012 14.7514 1.59195 14.7514 1.62514V14.623C14.7514 14.6562 14.7382 14.688 14.7147 14.7115C14.6912 14.7349 14.6594 14.7481 14.6262 14.7481H1.62514ZM24.377 14.7481C24.3438 14.7481 24.312 14.7349 24.2885 14.7115C24.2651 14.688 24.2519 14.6562 24.2519 14.623V1.62514C24.2519 1.59194 24.2651 1.56012 24.2885 1.53665L23.2323 0.480393L24.2885 1.53665C24.312 1.51318 24.3438 1.5 24.377 1.5H37.3749C37.4081 1.5 37.4399 1.51318 37.4633 1.53665L38.5218 0.478197L37.4634 1.53666C37.4868 1.56012 37.5 1.59194 37.5 1.62514V14.623C37.5 14.6562 37.4868 14.688 37.4634 14.7114L38.4847 15.7328L37.4633 14.7115C37.4399 14.7349 37.4081 14.7481 37.3749 14.7481H24.377ZM1.62514 37.5C1.59195 37.5 1.56012 37.4868 1.53665 37.4633C1.51319 37.4399 1.5 37.4081 1.5 37.3749V24.3738C1.5 24.3406 1.51318 24.3088 1.53665 24.2853C1.56012 24.2618 1.59195 24.2486 1.62514 24.2486H14.6262C14.6594 24.2486 14.6912 24.2618 14.7147 24.2853C14.7382 24.3088 14.7514 24.3406 14.7514 24.3738V37.3749C14.7514 37.4081 14.7382 37.4399 14.7147 37.4633C14.6912 37.4868 14.6594 37.5 14.6262 37.5H1.62514ZM24.377 37.5C24.3438 37.5 24.312 37.4868 24.2885 37.4633C24.2651 37.4399 24.2519 37.4081 24.2519 37.3749V24.3738C24.2519 24.3406 24.2651 24.3088 24.2885 24.2853C24.312 24.2618 24.3438 24.2486 24.377 24.2486H37.3749C37.4081 24.2486 37.4399 24.2618 37.4633 24.2853L38.524 23.2246L37.4634 24.2853C37.4868 24.3088 37.5 24.3406 37.5 24.3738V37.3749C37.5 37.4081 37.4868 37.4399 37.4634 37.4633C37.4399 37.4868 37.4081 37.5 37.3749 37.5H24.377Z" stroke="white" stroke-width="3"/>
</svg>
