<svg width="36" height="39" viewBox="0 0 36 39" fill="none" xmlns="http://www.w3.org/2000/svg">
<path d="M2.16667 39C0.97005 39 0 38.03 0 36.8333V36.6245C0 35.5432 0.876532 34.6667 1.95779 34.6667C3.03905 34.6667 3.91558 33.7901 3.91558 32.7089V6C3.91558 2.68629 6.60187 0 9.91558 0H22.4101C23.0085 0 23.4935 0.485025 23.4935 1.08333C23.4935 1.68164 23.9785 2.16667 24.5768 2.16667H27.4091C29.5716 2.16667 31.3246 3.91973 31.3246 6.08225V32.7089C31.3246 33.7901 32.2012 34.6667 33.2824 34.6667C34.3637 34.6667 35.2402 35.5432 35.2402 36.6245V36.8333C35.2402 38.03 34.2702 39 33.0736 39H31.3246C29.1621 39 27.4091 37.2469 27.4091 35.0844V8.45779C27.4091 7.37653 26.5325 6.5 25.4513 6.5C24.37 6.5 23.4935 7.37653 23.4935 8.45779V33C23.4935 36.3137 20.8072 39 17.4935 39H2.16667ZM15.6623 21.6667C16.217 21.6667 16.6823 21.4587 17.0582 21.0427C17.4341 20.6267 17.6214 20.1124 17.6201 19.5C17.6188 18.8876 17.4309 18.3733 17.0563 17.9573C16.6817 17.5413 16.217 17.3333 15.6623 17.3333C15.1076 17.3333 14.643 17.5413 14.2684 17.9573C13.8938 18.3733 13.7058 18.8876 13.7045 19.5C13.7032 20.1124 13.8912 20.6274 14.2684 21.0448C14.6456 21.4623 15.1102 21.6696 15.6623 21.6667Z" fill="#C09486"/>
</svg>
